<svg width="50" height="50" viewBox="0 0 50 50" fill="none" xmlns="http://www.w3.org/2000/svg">
    <g id="codeSvg">
        <path fill-rule="evenodd" clip-rule="evenodd" d="M18.3125 42.0645L27.2623 6.6875L31.4375 7.87241L22.4878 43.3125L18.3125 42.0645Z" fill="#7572D5"/>
        <path fill-rule="evenodd" clip-rule="evenodd" d="M13.5025 12.6875L16.5625 15.9278L7.99501 25.0001L16.5625 34.0721L13.5025 37.3125L1.875 25.0001L13.5025 12.6875Z" fill="#7572D5"/>
        <path fill-rule="evenodd" clip-rule="evenodd" d="M36.4976 12.6875L33.4375 15.9278L42.0051 25.0001L33.4375 34.0721L36.4976 37.3125L48.125 25.0001L36.4976 12.6875Z" fill="#7572D5"/>
    </g>


    <g id="figma">
    <path d="M17.7083 4.16663C14.2565 4.16663 11.4583 6.96486 11.4583 10.4166C11.4583 13.8684 14.2565 16.6666 17.7083 16.6666H32.2916C35.7435 16.6666 38.5416 13.8684 38.5416 10.4166C38.5416 6.96486 35.7435 4.16663 32.2916 4.16663H17.7083Z" fill="#7572D5"/>
    <path d="M32.2917 18.75C28.8398 18.75 26.0417 21.5481 26.0417 25C26.0417 28.4519 28.8398 31.25 32.2917 31.25C35.7436 31.25 38.5417 28.4519 38.5417 25C38.5417 21.5481 35.7436 18.75 32.2917 18.75Z" fill="#7572D5"/>
    <path d="M11.4583 25C11.4583 21.5481 14.2565 18.75 17.7083 18.75H23.9583V31.25H17.7083C14.2565 31.25 11.4583 28.4519 11.4583 25Z" fill="#7572D5"/>
    <path d="M17.7083 33.3334C14.2565 33.3334 11.4583 36.1315 11.4583 39.5834C11.4583 43.0352 14.2565 45.8334 17.7083 45.8334C21.1602 45.8334 23.9583 43.0352 23.9583 39.5834V33.3334H17.7083Z" fill="#7572D5"/>

    </g>

    <g id="linkedin">
        <path d="M5.80637 7.88611H2.53296V18.3623H5.80637V7.88611Z" fill="#7572D5"/>
        <path d="M4.10079 2.93994C2.89376 2.93994 2.10001 3.72057 2.10001 4.75704C2.10001 5.77383 2.86752 6.57415 4.05487 6.57415H4.08111C5.31437 6.57415 6.08189 5.76727 6.07533 4.75704C6.04909 3.72057 5.30781 2.93994 4.10079 2.93994Z" fill="#7572D5"/>
        <path d="M14.7476 7.78772C12.8714 7.78772 11.6972 8.81107 11.4807 9.53266V7.88612H7.8006C7.84652 8.75859 7.8006 18.3623 7.8006 18.3623H11.4807V12.7011C11.4807 12.3797 11.4676 12.0648 11.5594 11.8418C11.8087 11.212 12.3532 10.556 13.3306 10.556C14.6098 10.556 15.1871 11.5269 15.1871 12.9438V18.3623H18.9V12.5371C18.9 9.29651 17.0764 7.78772 14.7476 7.78772Z" fill="#7572D5"/>
    </g>


    <g id="telegram">
        <path d="M18.9057 4.76449L16.3705 16.7208C16.1791 17.5644 15.6804 17.7745 14.9717 17.3772L11.1085 14.5305L9.24472 16.3235C9.0383 16.5299 8.86608 16.7022 8.46824 16.7022L8.74607 12.7681L15.9054 6.29885C16.2169 6.02162 15.8376 5.86741 15.4218 6.14524L6.57084 11.7186L2.76043 10.5257C1.93174 10.2671 1.91674 9.69701 2.93325 9.29917L17.837 3.55716C18.5271 3.29854 19.1308 3.71018 18.9057 4.76449Z" fill="#1F1F20"/>
    </g>

    <g id="vector">
        <path d="M32.5524 8.27498L7.4476 8.26898L7.85306 13.186L27.1397 13.189L26.6535 18.2815H14.005L14.4623 23.1054H26.2373L25.5407 29.7119L19.9985 31.2199L14.3678 29.7014L14.0096 25.7447H9.03742L9.58921 32.9724L19.9985 36.1653L30.2324 33.2965L32.5509 8.27648L32.5524 8.27498ZM0 0H40L36.3616 40.4311L19.9558 45L3.64149 40.4281L0 0Z" fill="#7572D5"/>
    </g>


    <g id="vector2">
        <path d="M45.625 20.4131C45.625 17.4964 42.5 14.7881 37.2917 12.9131L36.3542 12.6006V12.1839C37.5 6.45472 36.6667 2.18389 34.0625 0.621388C31.4583 -0.941112 27.6042 0.517222 23.4375 4.16305L22.8125 4.78805L22.6042 4.57972H22.3958C18.125 0.621389 13.9583 -0.732778 11.3542 0.725555C8.75 2.18389 8.02083 6.24639 9.0625 11.5589C9.17208 11.8969 9.242 12.2464 9.27083 12.6006L8.125 13.0172C3.02083 14.7881 0 17.4964 0 20.4131C0 23.3297 3.33333 26.2464 8.54167 28.1214L9.27083 28.3297C9.14214 28.6985 9.07185 29.0851 9.0625 29.4756C8.02083 34.6839 8.95833 38.6422 11.3542 40.1006C13.75 41.5589 18.125 40.2047 22.2917 36.5589L22.9167 36.0381L23.75 36.8714C26.6667 39.3714 29.5833 40.7256 31.875 40.7256C32.6833 40.744 33.4796 40.5268 34.1667 40.1006C36.7708 38.6422 37.7083 34.3714 36.5625 28.9547V28.7464C36.5175 28.575 36.4827 28.4011 36.4583 28.2256H36.7708C42.2917 26.2464 45.625 23.4339 45.625 20.4131ZM42.6042 20.4131C42.6042 21.6631 40.3125 23.8506 35.8333 25.3089H35.625C35.0789 23.6333 34.4176 21.9974 33.6458 20.4131C34.375 18.7464 35 17.0797 35.5208 15.5172L36.3542 15.7256C40.5208 17.1839 42.6042 19.1631 42.6042 20.4131ZM25.7292 34.5797L24.8958 33.9547C26.0886 32.6331 27.2016 31.2418 28.2292 29.7881L33.5417 28.9547C33.6458 29.1631 33.6458 29.3714 33.75 29.4756C34.1212 31.3623 34.1915 33.296 33.9583 35.2047C33.812 36.1176 33.3733 36.9583 32.7083 37.6006C31.6667 38.2256 28.8542 37.3922 25.7292 34.5797ZM24.375 29.9964L22.9167 31.8714L21.25 29.9964H24.375ZM10.1042 15.4131C10.6277 17.1305 11.2896 18.8026 12.0833 20.4131C11.289 22.0591 10.6271 23.7659 10.1042 25.5172L9.47917 25.3089C7.65506 24.7332 5.9579 23.8139 4.47917 22.6006C4.09627 22.3586 3.76855 22.0388 3.5173 21.6619C3.26606 21.2851 3.0969 20.8596 3.02083 20.4131C3.02083 19.1631 5.10417 17.1839 9.0625 15.8297L10.1042 15.4131ZM21.25 10.8297L22.8125 9.05889L24.375 10.8297H21.25ZM32.7083 3.22556C33.8542 3.85056 34.4792 6.97555 33.5417 11.5589C33.5465 11.6153 33.5397 11.6721 33.5218 11.7259C33.5039 11.7796 33.4752 11.8291 33.4375 11.8714L28.2292 11.0381C27.2016 9.58431 26.0886 8.19296 24.8958 6.87139L25.5208 6.35055C28.8542 3.43389 31.5625 2.60056 32.7083 3.22556ZM15.3125 14.2672L14.4792 15.6214L13.75 16.9756C13.4375 16.2464 13.2292 15.5172 12.9167 14.6839L15.3125 14.2672ZM12.9167 26.1422C13.2292 25.4131 13.4375 24.6839 13.75 23.8506L14.4792 25.2047L15.3125 26.5589L12.9167 26.1422ZM30.3125 20.4131C29.7824 21.5551 29.1913 22.6678 28.5417 23.7464C27.9167 24.8922 27.1875 25.9339 26.5625 26.9756H19.0625C18.3333 25.8297 17.6042 24.7881 17.0833 23.7464C16.4286 22.6708 15.8373 21.5577 15.3125 20.4131C15.8179 19.2589 16.4099 18.1446 17.0833 17.0797C17.6818 16.0005 18.3426 14.9571 19.0625 13.9547C21.5582 13.7465 24.0668 13.7465 26.5625 13.9547C27.2917 14.9964 27.9167 16.0381 28.5417 17.0797C29.2151 18.1446 29.8071 19.2589 30.3125 20.4131ZM31.1458 15.6214L30.3125 14.2672L32.7083 14.7881C32.4764 15.5339 32.1981 16.2645 31.875 16.9756L31.1458 15.6214ZM30.3125 26.5589L31.1458 25.2047L31.875 23.7464L32.8125 26.1422L30.3125 26.5589ZM20.625 6.76722H20.7292L17.3958 10.9339L12.1875 11.7672C12.0833 11.4547 12.0833 11.2464 11.9792 10.9339C11.1458 6.66305 11.7708 3.74639 12.8125 3.22556C13.0891 3.04391 13.4225 2.9698 13.75 3.01722C15.2083 3.01722 17.7083 4.05889 20.5208 6.55889L20.625 6.76722ZM11.9792 29.9964C11.9982 29.6748 12.0685 29.3583 12.1875 29.0589L17.5 29.7881C18.5015 31.2612 19.6159 32.6543 20.8333 33.9547L20.625 34.1631L20.4167 34.3714C18.9965 35.6869 17.3336 36.713 15.5208 37.3922C15.1232 37.6005 14.6875 37.7263 14.24 37.7621C13.7925 37.7979 13.3424 37.743 12.9167 37.6006C11.7708 36.9756 11.1458 34.1631 11.9792 29.9964Z" fill="#7572D5"/>
    </g>

<g id="vector3">
    <path d="M0 20V40H40V0H0V20ZM32.235 18.4067C33.2517 18.66 34.025 19.1117 34.7367 19.8483C35.105 20.2417 35.6517 20.9583 35.695 21.1317C35.7083 21.1817 33.9683 22.3483 32.915 23.0033C32.8767 23.0283 32.7233 22.8633 32.5533 22.61C32.0367 21.86 31.4983 21.5367 30.6733 21.48C29.46 21.3967 28.68 22.0317 28.6867 23.0917C28.6756 23.3523 28.7343 23.6112 28.8567 23.8417C29.1233 24.3933 29.62 24.725 31.1733 25.3967C34.0383 26.63 35.2633 27.4417 36.025 28.5967C36.875 29.885 37.0667 31.9433 36.4883 33.4733C35.855 35.1367 34.28 36.2667 32.0633 36.64C31.3783 36.7617 29.7533 36.7433 29.0167 36.61C27.41 36.3233 25.8867 35.53 24.9467 34.4883C24.5783 34.0833 23.86 33.0217 23.905 32.9467C23.9233 32.92 24.0883 32.8183 24.2717 32.7117C24.4517 32.61 25.1233 32.2217 25.7583 31.8533L26.9083 31.1867L27.15 31.5433C27.4867 32.0567 28.2217 32.7617 28.6667 32.9967C29.9433 33.67 31.695 33.575 32.5583 32.8C32.7319 32.6538 32.8694 32.4693 32.9599 32.2612C33.0504 32.053 33.0915 31.8267 33.08 31.6C33.08 31.1367 33.0217 30.9333 32.78 30.5833C32.47 30.14 31.835 29.7667 30.0317 28.9833C27.9683 28.095 27.08 27.5433 26.2667 26.6667C25.759 26.0881 25.3841 25.4055 25.1683 24.6667C25.0167 24.1017 24.9783 22.685 25.0983 22.115C25.5233 20.12 27.0283 18.7317 29.2 18.3183C29.905 18.185 31.5433 18.235 32.235 18.4067ZM22.845 20.0767L22.8583 21.715H17.65V36.5083H13.9667V21.715H8.76333V20.1083C8.76333 19.2183 8.78167 18.475 8.80667 18.4583C8.82667 18.4317 11.995 18.4183 15.835 18.425L22.8267 18.445L22.845 20.0767Z" fill="#7572D5"/>
</g>


    <g id="vector4">
        <path d="M31.0091 0L30.7388 1.39963C30.3208 4.05212 30.4721 4.81099 31.6182 5.79539L32.7247 6.70461L31.5786 11.7805C30.8938 14.8088 30.0541 17.3468 29.5207 18.1808C29.063 18.9003 28.5296 19.9599 28.4142 20.5291C28.2232 21.2092 27.5745 21.8929 26.5834 22.4978C25.7076 22.9918 23.9885 24.3163 22.7703 25.3794C21.7972 26.2493 21.1269 26.7826 20.7629 27.0117L19.5735 27.946C19.1915 28.5546 18.9753 29.045 18.8924 29.4172C18.8095 29.8003 18.8563 30.0544 18.9789 30.2405C19.0978 30.4195 19.3032 30.5448 19.5843 30.6236C19.9171 30.701 20.2597 30.7288 20.6007 30.7059C21.3722 30.6535 22.1358 30.5191 22.8784 30.305C23.1307 30.237 23.3289 30.1725 23.5019 30.1153C23.7686 29.7895 24.3849 29.1738 25.4769 28.1035C28.3746 25.2649 29.481 23.7113 28.3385 24.1302C27.9169 24.2805 28.1079 23.9011 28.8323 23.1422C30.3604 21.6638 31.2362 19.4301 33.067 12.4248C34.5159 6.89433 34.5159 6.81558 35.5827 6.81558C36.0836 6.81558 37.5 6.90149 37.5 6.90149V0H34.2492H31.0091ZM18.1716 11.8306C17.1192 11.8235 14.8558 13.4164 8.08025 18.9111C7.78832 19.6019 7.76309 20.078 7.89644 20.3859C7.98294 20.5971 8.14152 20.7438 8.36137 20.8512C8.57761 20.9586 8.85873 21.0231 9.16867 21.0481C9.78496 21.1018 10.513 21.0052 11.1004 20.8906L11.4969 20.8011C11.6326 20.6204 11.8108 20.4754 12.0159 20.3787C12.4339 20.1496 14.1891 18.5603 15.9443 16.8564C19.0329 13.7493 19.7573 12.3461 18.4995 11.8915C18.3963 11.8507 18.2826 11.83 18.1716 11.8306ZM26.086 13.9891C25.1598 14.0142 23.4911 15.0809 20.6331 17.3468C19.1987 18.503 18.2905 19.1259 17.8039 19.2547L15.9154 20.7367C15.2054 22.0253 15.1009 22.8236 15.2883 23.2639C15.3352 23.3725 15.4033 23.4708 15.4887 23.5531C15.5741 23.6355 15.675 23.7002 15.7857 23.7436C16.061 23.8515 16.3546 23.9062 16.6506 23.9046C17.358 23.8971 18.0612 23.7948 18.741 23.6004C19.0953 23.5059 19.4452 23.3961 19.7898 23.271L19.8943 23.2281L20.0853 23.1279C20.4457 22.6661 21.2746 21.7962 22.3126 20.794C25.5923 17.6511 27.2681 15.4174 26.9258 14.5833C26.7708 14.1788 26.5041 13.9748 26.086 13.9891ZM17.3498 17.8551C17.0831 17.8837 16.4849 18.3419 15.4073 19.2798C13.8503 20.6472 12.1528 21.4347 11.5654 21.0839C11.4288 21.1145 11.2919 21.1432 11.1545 21.1698C10.5562 21.2879 9.81019 21.3846 9.14344 21.3309C8.82929 21.312 8.52137 21.2355 8.23523 21.1054C7.96533 20.9828 7.74994 20.7664 7.62975 20.4968C7.4964 20.1747 7.4964 19.7738 7.64777 19.2619L5.30514 21.1734L0.00360481 25.5298V32.5924L17.3751 19.0006C17.3717 18.8518 17.3911 18.7033 17.4327 18.5603C17.5661 18.0806 17.5589 17.8372 17.3498 17.8587V17.8551ZM24.8246 20.1425C24.5615 20.1425 24.1218 20.5112 23.419 21.2521C22.464 22.2652 20.9611 23.246 20.1646 23.4464L20.042 23.5109C19.9113 23.5645 19.7791 23.6146 19.6456 23.6612C19.4294 23.7328 19.1482 23.8187 18.8239 23.9046C18.1752 24.08 17.3679 24.2411 16.647 24.2232C16.3072 24.2228 15.9707 24.1572 15.6559 24.0299C15.3593 23.9085 15.1216 23.6775 14.9928 23.3856C14.7838 22.888 14.8667 22.19 15.3244 21.1985L0 33.1866V37.5H6.73234L21.0115 26.3603C21.3827 25.9522 21.9414 25.3938 22.6946 24.6957C24.7129 22.8379 25.1706 22.1972 25.1706 21.2486C25.1706 20.5112 25.0877 20.1389 24.8246 20.1389V20.1425ZM28.2232 27.1227L27.0014 28.3326C26.3167 28.9769 25.0949 29.7716 24.2588 30.1117L24.093 30.1833L24.0822 30.2012L24.0461 30.237C24.0137 30.262 23.9993 30.2656 23.9741 30.2763C23.6403 30.4018 23.3012 30.5129 22.9577 30.6092C22.1941 30.83 21.4086 30.968 20.6151 31.0209C20.2399 31.0448 19.8632 31.0122 19.4978 30.9243C19.1807 30.8549 18.9008 30.6713 18.7122 30.4088C18.5392 30.1439 18.4887 29.7895 18.586 29.3528C18.6634 29.0419 18.7784 28.7414 18.9284 28.4579L7.4063 37.5H22.7307L24.5615 35.4167C27.0771 32.5029 28.2232 30.4195 28.2232 28.6369V27.1227Z" fill="#7572D5"/>
    </g>

    <g id="vector5">
        <path d="M9.49839 12.4375C9.03381 12.4375 8.58797 12.5083 8.14422 12.5729C8.28797 12.0896 8.43589 11.5979 8.67339 11.1563C8.91089 10.5146 9.28172 9.95833 9.65047 9.39792C9.95881 8.79167 10.5026 8.38125 10.9026 7.8625C11.3213 7.35833 11.8921 7.02292 12.3442 6.60417C12.788 6.16667 13.3692 5.94792 13.8317 5.63958C14.3151 5.3625 14.7359 5.05625 15.1859 4.91042L16.3088 4.44792L17.2963 4.0375L16.2859 0L15.0421 0.299999C14.6442 0.399999 14.1588 0.516666 13.6067 0.656249C13.0421 0.760416 12.4401 1.04583 11.7692 1.30625C11.1067 1.60208 10.3401 1.80208 9.62756 2.27708C8.91089 2.73125 8.08381 3.11042 7.35464 3.71875C6.64839 4.34583 5.79631 4.88958 5.16714 5.6875C4.47964 6.43333 3.80047 7.21667 3.27339 8.10833C2.66297 8.95833 2.24839 9.89167 1.81089 10.8146C1.41506 11.7375 1.09631 12.6813 0.83589 13.5979C0.34214 15.4354 0.121307 17.1813 0.0358901 18.675C-0.0349432 20.1708 0.00672344 21.4146 0.0942235 22.3146C0.125473 22.7396 0.183807 23.1521 0.225474 23.4375L0.277557 23.7875L0.331723 23.775C0.702267 25.5059 1.55527 27.0965 2.79206 28.3629C4.02886 29.6292 5.59889 30.5196 7.32056 30.9309C9.04222 31.3422 10.8452 31.2577 12.5208 30.6872C14.1964 30.1166 15.6763 29.0833 16.7892 27.7068C17.9022 26.3304 18.6027 24.6669 18.8097 22.909C19.0167 21.151 18.7218 19.3703 17.9591 17.773C17.1964 16.1756 15.997 14.8268 14.4998 13.8826C13.0025 12.9384 11.2685 12.4374 9.49839 12.4375ZM32.4151 12.4375C31.9505 12.4375 31.5046 12.5083 31.0609 12.5729C31.2046 12.0896 31.3526 11.5979 31.5901 11.1563C31.8276 10.5146 32.1984 9.95833 32.5671 9.39792C32.8755 8.79167 33.4192 8.38125 33.8192 7.8625C34.238 7.35833 34.8088 7.02292 35.2609 6.60417C35.7046 6.16667 36.2859 5.94792 36.7484 5.63958C37.2317 5.3625 37.6526 5.05625 38.1026 4.91042L39.2255 4.44792L40.213 4.0375L39.2026 0L37.9588 0.299999C37.5609 0.399999 37.0755 0.516666 36.5234 0.656249C35.9588 0.760416 35.3567 1.04583 34.6859 1.30625C34.0255 1.60417 33.2567 1.80208 32.5442 2.27917C31.8276 2.73333 31.0005 3.1125 30.2713 3.72083C29.5651 4.34792 28.713 4.89167 28.0838 5.6875C27.3963 6.43333 26.7171 7.21667 26.1901 8.10833C25.5796 8.95833 25.1651 9.89167 24.7276 10.8146C24.3317 11.7375 24.013 12.6813 23.7526 13.5979C23.2588 15.4354 23.038 17.1813 22.9526 18.675C22.8817 20.1708 22.9234 21.4146 23.0109 22.3146C23.0421 22.7396 23.1005 23.1521 23.1421 23.4375L23.1942 23.7875L23.2484 23.775C23.6189 25.5059 24.4719 27.0965 25.7087 28.3629C26.9455 29.6292 28.5156 30.5196 30.2372 30.9309C31.9589 31.3422 33.7618 31.2577 35.4375 30.6872C37.1131 30.1166 38.593 29.0833 39.7059 27.7068C40.8188 26.3304 41.5193 24.6669 41.7263 22.909C41.9334 21.151 41.6385 19.3703 40.8758 17.773C40.113 16.1756 38.9137 14.8268 37.4164 13.8826C35.9192 12.9384 34.1852 12.4374 32.4151 12.4375Z" fill="#7572D5"/>
    </g>

    <g id="instagram">
        <path d="M13.5516 0H3.24844C1.45687 0 0 1.45631 0 3.24717V6.67802V13.5528C0 15.3437 1.45687 16.8 3.24844 16.8H13.5516C15.3431 16.8 16.8 15.3437 16.8 13.5528V6.67146V3.24061C16.7934 1.45631 15.3366 0 13.5516 0ZM14.4834 1.93518H14.8575V2.30254V4.78219L12.0159 4.78875L12.0094 1.94174L14.4834 1.93518ZM5.99812 6.67146C6.53625 5.93018 7.40906 5.43819 8.39344 5.43819C9.37781 5.43819 10.2506 5.92362 10.7887 6.67146C11.1431 7.15689 11.3466 7.75385 11.3466 8.39672C11.3466 10.0236 10.0209 11.3553 8.38688 11.3553C6.75281 11.3553 5.44031 10.0236 5.44031 8.39672C5.44031 7.75385 5.65031 7.15689 5.99812 6.67146ZM15.1594 13.5463C15.1594 14.4319 14.4375 15.1535 13.5516 15.1535H3.24844C2.3625 15.1535 1.64062 14.4319 1.64062 13.5463V6.67146H4.1475C3.93094 7.20281 3.80625 7.78665 3.80625 8.39672C3.80625 10.9289 5.86687 12.9887 8.4 12.9887C10.9331 12.9887 12.9937 10.9289 12.9937 8.39672C12.9937 7.78665 12.8691 7.20281 12.6525 6.67146H15.1594V13.5463Z" fill="#7572D5"/>
    </g>

    <g id="vkontakte">
        <path d="M16.0696 7.84834C15.7038 7.39337 15.2882 6.98561 14.8862 6.59126C14.7432 6.45101 14.5954 6.30601 14.453 6.16183C14.0439 5.74745 14.0291 5.59177 14.3529 5.12109C14.5769 4.79665 14.8145 4.47178 15.0442 4.15759C15.2526 3.87254 15.4681 3.57776 15.6746 3.28202L15.717 3.22121C16.1117 2.65528 16.52 2.07008 16.7372 1.36413C16.7936 1.17788 16.8529 0.903795 16.7174 0.674612C16.5821 0.44562 16.3195 0.375759 16.1337 0.343128C16.0419 0.32698 15.9506 0.324776 15.866 0.324776L13.2809 0.322859L13.2596 0.322668C12.8687 0.322668 12.6053 0.513518 12.4544 0.906191C12.3103 1.28137 12.152 1.6809 11.9714 2.06078C11.612 2.81723 11.1554 3.68849 10.4949 4.41514L10.4669 4.44605C10.3889 4.53292 10.3006 4.63129 10.236 4.63129C10.2261 4.63129 10.2153 4.62933 10.2031 4.62535C10.0662 4.5701 9.97441 4.22688 9.97857 4.06722C9.97862 4.06502 9.97866 4.06282 9.97866 4.06061L9.97686 0.964745C9.97686 0.954011 9.97612 0.943374 9.97478 0.932737C9.90902 0.429473 9.76336 0.116197 9.21298 0.00450384C9.19836 0.00148512 9.18343 0 9.16854 0H6.48064C6.04272 0 5.80142 0.184429 5.5746 0.460475C5.51338 0.534266 5.38593 0.687885 5.4491 0.874231C5.51319 1.06336 5.72124 1.1038 5.78898 1.11693C6.12526 1.18324 6.31481 1.39637 6.3685 1.76878C6.46223 2.41546 6.47375 3.10569 6.40475 3.94101C6.38551 4.17317 6.34746 4.35247 6.28475 4.50566C6.27019 4.5414 6.21853 4.65808 6.16586 4.65813C6.14912 4.65813 6.10071 4.65132 6.01252 4.58836C5.80401 4.44035 5.65146 4.22913 5.47361 3.96823C4.86857 3.08221 4.36078 2.10616 3.92101 0.983624C3.75791 0.570395 3.45331 0.339055 3.06293 0.332251C2.63398 0.325495 2.24508 0.322236 1.87417 0.322236C1.4689 0.322236 1.09318 0.326118 0.726289 0.334024C0.412209 0.339774 0.194961 0.437331 0.0806489 0.624204C-0.033848 0.811221 -0.0264029 1.05689 0.102799 1.35426C1.13706 3.73679 2.07482 5.46911 3.14349 6.97138C3.89229 8.02256 4.64337 8.75017 5.5069 9.261C6.41668 9.8003 7.43624 10.0625 8.62375 10.0625C8.75836 10.0625 8.89756 10.0591 9.0379 10.0523C9.72793 10.0175 9.98393 9.75866 10.0163 9.06249C10.0317 8.70671 10.0693 8.33359 10.238 8.01537C10.3446 7.81489 10.4439 7.81489 10.4766 7.81489C10.5394 7.81489 10.6174 7.84489 10.7012 7.90109C10.8514 8.00268 10.9801 8.13876 11.0857 8.25764C11.1851 8.37058 11.2834 8.48467 11.3817 8.5988C11.594 8.84514 11.8134 9.09981 12.0427 9.34136C12.5445 9.8704 13.0974 10.1031 13.7323 10.0526H16.1023C16.1074 10.0526 16.1125 10.0524 16.1175 10.0521C16.3537 10.0359 16.5582 9.90016 16.6787 9.67965C16.8279 9.40648 16.8249 9.05798 16.6706 8.7472C16.4956 8.39578 16.2685 8.09554 16.0696 7.84834Z" fill="#7572D5"/>
    </g>



</svg>
